<?xml version="1.0" encoding="utf-8"?>
<!-- Generator: Adobe Illustrator 16.0.0, SVG Export Plug-In . SVG Version: 6.00 Build 0)  -->
<!DOCTYPE svg PUBLIC "-//W3C//DTD SVG 1.1//EN" "http://www.w3.org/Graphics/SVG/1.1/DTD/svg11.dtd">
<svg version="1.1" id="Layer_1" xmlns="http://www.w3.org/2000/svg" xmlns:xlink="http://www.w3.org/1999/xlink" x="0px" y="0px"
	 width="196.436px" height="49.957px" viewBox="0 0 196.436 49.957" enable-background="new 0 0 196.436 49.957"
	 xml:space="preserve">
<polygon fill="#2F5190" stroke="#2F5190" stroke-miterlimit="10" points="14.71,49.457 0.578,24.978 14.71,0.5 49.976,0.5 
	64.107,24.978 49.976,49.457 "/>
<polygon fill="#FFFFFF" points="45.71,49.457 31.578,24.978 45.71,0.5 73.976,0.5 88.107,24.978 73.976,49.457 "/>
<polyline fill="#FFFFFF" stroke="#2F5190" stroke-miterlimit="10" points="45.71,0.5 181.726,0.5 195.857,24.978 181.726,49.457 
	45.71,49.457 "/>
<polygon fill="#F5C718" stroke="#2F5190" stroke-miterlimit="10" points="19.479,49.457 5.347,24.978 19.479,0.5 47.745,0.5 
	61.876,24.978 47.745,49.457 "/>
<polygon fill="#1D75BC" stroke="#2F5190" stroke-miterlimit="10" points="25.249,49.457 11.116,24.978 25.249,0.5 53.514,0.5 
	67.646,24.978 53.514,49.457 "/>
<g>
	<path d="M76.421,29.134l-3.738-11.458h1.598l1.784,5.644c0.493,1.547,0.918,2.94,1.225,4.283h0.034
		c0.322-1.325,0.799-2.771,1.309-4.267l1.938-5.66h1.581l-4.097,11.458H76.421z"/>
	<path d="M83.613,25.292c0.033,2.023,1.325,2.855,2.821,2.855c1.07,0,1.717-0.187,2.276-0.425l0.256,1.07
		c-0.526,0.238-1.429,0.511-2.736,0.511c-2.532,0-4.046-1.666-4.046-4.147c0-2.481,1.462-4.438,3.858-4.438
		c2.687,0,3.399,2.362,3.399,3.876c0,0.306-0.034,0.544-0.051,0.696L83.613,25.292L83.613,25.292z M87.998,24.222
		c0.019-0.952-0.391-2.431-2.073-2.431c-1.513,0-2.176,1.394-2.295,2.431H87.998z"/>
	<path d="M91.841,20.906l1.803,4.862c0.187,0.544,0.391,1.188,0.525,1.683h0.034c0.153-0.492,0.323-1.121,0.527-1.717l1.632-4.828
		h1.58L95.7,26.771c-1.071,2.82-1.802,4.266-2.822,5.15c-0.729,0.646-1.462,0.899-1.835,0.969l-0.374-1.258
		c0.374-0.119,0.866-0.357,1.31-0.731c0.407-0.321,0.918-0.899,1.258-1.666c0.068-0.151,0.119-0.271,0.119-0.356
		c0-0.084-0.034-0.203-0.104-0.391l-3.042-7.582H91.841z"/>
	<path d="M98.998,27.604c0.441,0.289,1.224,0.597,1.971,0.597c1.089,0,1.599-0.545,1.599-1.226c0-0.714-0.424-1.104-1.529-1.513
		c-1.479-0.526-2.176-1.343-2.176-2.328c0-1.326,1.07-2.414,2.838-2.414c0.834,0,1.564,0.238,2.023,0.51l-0.373,1.088
		c-0.324-0.204-0.918-0.476-1.685-0.476c-0.885,0-1.377,0.51-1.377,1.122c0,0.68,0.492,0.985,1.564,1.394
		c1.428,0.544,2.158,1.259,2.158,2.481c0,1.445-1.121,2.465-3.076,2.465c-0.9,0-1.734-0.221-2.313-0.561L98.998,27.604z"/>
	<path d="M106.768,25.292c0.032,2.023,1.323,2.855,2.819,2.855c1.072,0,1.718-0.187,2.277-0.425l0.256,1.07
		c-0.527,0.238-1.428,0.511-2.736,0.511c-2.532,0-4.047-1.666-4.047-4.147c0-2.481,1.463-4.438,3.859-4.438
		c2.686,0,3.4,2.362,3.4,3.876c0,0.306-0.035,0.544-0.052,0.696L106.768,25.292L106.768,25.292z M111.152,24.222
		c0.018-0.952-0.391-2.431-2.074-2.431c-1.512,0-2.176,1.394-2.295,2.431H111.152z"/>
	<path d="M114.451,17.065h1.494v12.067h-1.494V17.065z"/>
	<path d="M130.838,28.625c-0.664,0.236-1.973,0.629-3.52,0.629c-1.732,0-3.16-0.442-4.283-1.514
		c-0.986-0.951-1.598-2.482-1.598-4.267c0.018-3.417,2.362-5.916,6.205-5.916c1.325,0,2.36,0.289,2.854,0.527l-0.356,1.207
		c-0.611-0.272-1.377-0.493-2.533-0.493c-2.787,0-4.605,1.733-4.605,4.606c0,2.907,1.75,4.624,4.42,4.624
		c0.97,0,1.632-0.137,1.972-0.307v-3.416h-2.328v-1.19h3.772V28.625z"/>
	<path d="M140.578,24.952c0,3.043-2.106,4.368-4.096,4.368c-2.229,0-3.945-1.632-3.945-4.232c0-2.754,1.803-4.368,4.08-4.368
		C138.98,20.72,140.578,22.437,140.578,24.952z M134.051,25.037c0,1.802,1.037,3.162,2.498,3.162c1.429,0,2.5-1.343,2.5-3.196
		c0-1.394-0.696-3.161-2.465-3.161C134.816,21.842,134.051,23.474,134.051,25.037z M134.119,18.578c0-0.477,0.391-0.867,0.867-0.867
		c0.475,0,0.832,0.374,0.832,0.867c0,0.459-0.34,0.866-0.832,0.866C134.477,19.444,134.119,19.037,134.119,18.578z M137.281,18.578
		c0-0.477,0.373-0.867,0.85-0.867c0.476,0,0.832,0.374,0.832,0.867c0,0.459-0.34,0.866-0.832,0.866
		C137.621,19.444,137.281,19.037,137.281,18.578z"/>
	<path d="M143.945,24.681h0.033c0.205-0.289,0.494-0.646,0.729-0.936l2.414-2.839h1.803l-3.18,3.383l3.621,4.845h-1.818l-2.84-3.943
		l-0.764,0.85v3.094h-1.479V17.065h1.479L143.945,24.681L143.945,24.681z"/>
</g>
<g>
	<path fill="#FFFFFF" d="M37.809,32.265c-0.346,0-0.69,0.008-1.036-0.001c-0.788-0.022-1.374,0.306-1.737,1.003
		c-0.367,0.706-0.268,1.38,0.226,1.984c0.53,0.652,0.649,1.369,0.278,2.104c-0.393,0.778-1.111,1.022-1.952,0.983
		c-4.986-0.231-9.054-3.569-10.263-8.428c-1.473-5.922,2.509-12.093,8.518-13.197c4.771-0.876,9.579,1.159,11.811,5.05
		c1.07,1.866,1.548,3.869,0.988,6.013c-0.679,2.595-3.055,4.443-5.732,4.486C38.542,32.27,38.175,32.265,37.809,32.265z
		 M29.097,25.591c0.001-1.012-0.844-1.862-1.836-1.85c-0.979,0.013-1.788,0.83-1.798,1.816c-0.009,1.034,0.785,1.868,1.793,1.886
		C28.248,27.46,29.096,26.607,29.097,25.591z M42.438,25.554c-0.01-0.982-0.823-1.802-1.8-1.813
		c-0.993-0.011-1.834,0.839-1.833,1.852c0.002,1.017,0.853,1.869,1.842,1.85C41.654,27.423,42.447,26.585,42.438,25.554z
		 M32.725,20.753c0.006-1.039-0.74-1.815-1.758-1.83c-1.058-0.014-1.867,0.758-1.875,1.791c-0.007,1.038,0.8,1.849,1.836,1.844
		C31.938,22.553,32.719,21.77,32.725,20.753z M35.176,20.703c-0.008,1.053,0.775,1.855,1.812,1.855c1.005,0,1.81-0.792,1.822-1.792
		c0.012-1.022-0.754-1.824-1.76-1.84C35.973,18.906,35.186,19.653,35.176,20.703z"/>
	<g>
		<polygon fill="#FFFFFF" points="44.518,33.527 51.958,11.612 52.774,11.867 45.843,34.037 		"/>
		<path fill="#FFFFFF" d="M45.843,34.037c0,0,0.315,1.354,0.194,1.898c-0.187,0.837-1.537,2.066-2.402,2.281
			c-0.843,0.207-2.705,0.183-3.465-0.237c-0.408-0.226-1.241-1.394-1.241-1.394s1.409,0.197,1.818,0
			c0.294-0.143,0.845-1.082,1.021-1.39c0.248-0.44,0.95-1.269,1.393-1.512c0.375-0.207,1.359-0.157,1.359-0.157L45.843,34.037z"/>
	</g>
</g>
</svg>
