<?xml version="1.0" encoding="utf-8"?>
<!-- Generator: Adobe Illustrator 16.0.0, SVG Export Plug-In . SVG Version: 6.00 Build 0)  -->
<!DOCTYPE svg PUBLIC "-//W3C//DTD SVG 1.1//EN" "http://www.w3.org/Graphics/SVG/1.1/DTD/svg11.dtd">
<svg version="1.1" id="Layer_1" xmlns="http://www.w3.org/2000/svg" xmlns:xlink="http://www.w3.org/1999/xlink" x="0px" y="0px"
	 width="32px" height="32px" viewBox="0 0 32 32" enable-background="new 0 0 32 32" xml:space="preserve">
<path fill="#FFFFFF" d="M16.001,0.035C7.183,0.035,0.035,7.183,0.035,16c0,8.817,7.147,15.965,15.966,15.965
	c8.817,0,15.964-7.147,15.964-15.965C31.965,7.183,24.818,0.035,16.001,0.035z M17.156,24.775h-2.288V12.191h2.288V24.775z
	 M15.96,10.059c-0.806,0-1.378-0.624-1.378-1.404c0-0.806,0.598-1.43,1.43-1.43c0.858,0,1.405,0.624,1.405,1.43
	C17.443,9.435,16.871,10.059,15.96,10.059z"/>
</svg>
