<?xml version="1.0" encoding="utf-8"?>
<!-- Generator: Adobe Illustrator 16.0.0, SVG Export Plug-In . SVG Version: 6.00 Build 0)  -->
<!DOCTYPE svg PUBLIC "-//W3C//DTD SVG 1.1//EN" "http://www.w3.org/Graphics/SVG/1.1/DTD/svg11.dtd">
<svg version="1.1" id="Layer_1" xmlns="http://www.w3.org/2000/svg" xmlns:xlink="http://www.w3.org/1999/xlink" x="0px" y="0px"
	 width="196.436px" height="49.957px" viewBox="0 0 196.436 49.957" enable-background="new 0 0 196.436 49.957"
	 xml:space="preserve">
<g>
	<polygon fill="#2F5190" stroke="#2F5190" stroke-miterlimit="10" points="14.71,49.457 0.578,24.978 14.71,0.5 49.976,0.5 
		64.107,24.978 49.976,49.457 	"/>
	<polygon fill="#FFFFFF" points="45.71,49.457 31.578,24.978 45.71,0.5 73.976,0.5 88.107,24.978 73.976,49.457 	"/>
	<polyline fill="#FFFFFF" stroke="#2F5190" stroke-miterlimit="10" points="45.71,0.5 181.726,0.5 195.857,24.978 181.726,49.457 
		45.71,49.457 	"/>
	<polygon fill="#F5C718" stroke="#2F5190" stroke-miterlimit="10" points="19.479,49.457 5.347,24.978 19.479,0.5 47.745,0.5 
		61.876,24.978 47.745,49.457 	"/>
	<polygon fill="#1D75BC" stroke="#2F5190" stroke-miterlimit="10" points="25.249,49.457 11.116,24.978 25.249,0.5 53.514,0.5 
		67.646,24.978 53.514,49.457 	"/>
	<g>
		<path fill="#FFFFFF" d="M22.191,23.892l11.138-5.736v1.656l-9.386,4.704v0.048l9.386,4.704v1.655l-11.138-5.735V23.892z"/>
		<path fill="#FFFFFF" d="M34.887,31.884l6.695-17.4h1.632l-6.721,17.4H34.887z"/>
		<path fill="#FFFFFF" d="M55.864,25.212l-11.137,5.711v-1.655l9.457-4.704v-0.048l-9.457-4.704v-1.656l11.137,5.712V25.212z"/>
	</g>
	<g enable-background="new    ">
		<path d="M79.838,23.517h-4.454v4.129h4.964v1.242h-6.442V17.431h6.188v1.241h-4.709v3.62h4.454L79.838,23.517L79.838,23.517z"/>
		<path d="M82.219,23.228c0-0.969-0.017-1.802-0.068-2.567h1.31l0.051,1.615h0.068c0.374-1.104,1.274-1.802,2.277-1.802
			c0.17,0,0.289,0.017,0.426,0.051v1.411c-0.153-0.034-0.307-0.051-0.511-0.051c-1.054,0-1.802,0.799-2.006,1.921
			c-0.034,0.203-0.067,0.441-0.067,0.696v4.387h-1.479V23.228L82.219,23.228z"/>
		<path d="M88.441,25.047c0.034,2.023,1.326,2.855,2.822,2.855c1.071,0,1.717-0.188,2.278-0.426l0.255,1.071
			c-0.527,0.238-1.428,0.511-2.737,0.511c-2.533,0-4.045-1.666-4.045-4.148c0-2.481,1.462-4.436,3.858-4.436
			c2.686,0,3.399,2.362,3.399,3.876c0,0.306-0.034,0.544-0.051,0.697H88.441z M92.826,23.976c0.017-0.952-0.392-2.432-2.074-2.432
			c-1.514,0-2.176,1.395-2.295,2.432H92.826z"/>
		<path d="M96.124,22.888c0-0.851-0.018-1.547-0.068-2.228h1.326l0.085,1.36h0.034c0.408-0.782,1.359-1.547,2.72-1.547
			c1.139,0,2.906,0.68,2.906,3.502v4.912h-1.496v-4.742c0-1.326-0.492-2.431-1.903-2.431c-0.985,0-1.751,0.696-2.006,1.529
			c-0.068,0.188-0.102,0.442-0.102,0.697v4.946h-1.496V22.888z"/>
		<path d="M117.934,28.378c-0.662,0.238-1.972,0.629-3.519,0.629c-1.733,0-3.161-0.442-4.283-1.514
			c-0.986-0.951-1.599-2.482-1.599-4.266c0.018-3.417,2.362-5.916,6.204-5.916c1.326,0,2.363,0.289,2.855,0.527l-0.357,1.207
			c-0.61-0.272-1.377-0.493-2.531-0.493c-2.788,0-4.606,1.733-4.606,4.606c0,2.906,1.751,4.623,4.42,4.623
			c0.969,0,1.631-0.137,1.973-0.307v-3.416h-2.329v-1.19h3.772V28.378L117.934,28.378z"/>
		<path d="M124.837,28.889l-0.119-1.037h-0.051c-0.459,0.646-1.343,1.223-2.517,1.223c-1.666,0-2.516-1.172-2.516-2.361
			c0-1.99,1.768-3.077,4.946-3.06v-0.17c0-0.68-0.188-1.904-1.87-1.904c-0.766,0-1.563,0.238-2.143,0.612l-0.34-0.986
			c0.681-0.441,1.666-0.73,2.702-0.73c2.516,0,3.129,1.717,3.129,3.365v3.076c0,0.715,0.033,1.412,0.135,1.973H124.837
			L124.837,28.889z M124.616,24.689c-1.633-0.033-3.484,0.256-3.484,1.853c0,0.969,0.646,1.429,1.41,1.429
			c1.07,0,1.751-0.681,1.987-1.378c0.053-0.151,0.087-0.323,0.087-0.477V24.689z"/>
		<path d="M128.884,20.661l1.801,4.862c0.188,0.543,0.393,1.188,0.527,1.682h0.034c0.152-0.492,0.322-1.121,0.525-1.717l1.633-4.827
			h1.58l-2.242,5.864c-1.071,2.822-1.803,4.268-2.821,5.149c-0.731,0.646-1.463,0.9-1.836,0.97l-0.375-1.259
			c0.375-0.118,0.867-0.356,1.31-0.729c0.407-0.322,0.918-0.9,1.258-1.666c0.067-0.152,0.119-0.271,0.119-0.357
			c0-0.084-0.034-0.203-0.103-0.391l-3.043-7.581H128.884z"/>
		<path d="M143.264,20.661c-0.034,0.596-0.068,1.258-0.068,2.261v4.777c0,1.887-0.372,3.041-1.172,3.756
			c-0.799,0.748-1.955,0.986-2.991,0.986c-0.986,0-2.074-0.238-2.736-0.681l0.373-1.141c0.545,0.342,1.395,0.646,2.414,0.646
			c1.528,0,2.651-0.799,2.651-2.873v-0.918H141.7c-0.459,0.767-1.343,1.377-2.617,1.377c-2.039,0-3.502-1.731-3.502-4.011
			c0-2.787,1.818-4.368,3.706-4.368c1.428,0,2.21,0.748,2.566,1.428h0.033l0.068-1.241L143.264,20.661L143.264,20.661z
			 M141.718,23.908c0-0.255-0.018-0.476-0.085-0.68c-0.272-0.867-1.003-1.581-2.091-1.581c-1.429,0-2.447,1.207-2.447,3.111
			c0,1.615,0.815,2.957,2.43,2.957c0.918,0,1.752-0.578,2.074-1.529c0.086-0.256,0.119-0.545,0.119-0.797V23.908L141.718,23.908z"/>
		<path d="M152.563,26.645c0,0.85,0.019,1.598,0.068,2.244h-1.326l-0.085-1.345h-0.034c-0.391,0.664-1.258,1.529-2.719,1.529
			c-1.293,0-2.84-0.714-2.84-3.603v-4.81h1.496v4.556c0,1.563,0.477,2.617,1.836,2.617c1.003,0,1.699-0.697,1.972-1.358
			c0.085-0.222,0.136-0.492,0.136-0.767V20.66h1.496V26.645z"/>
		<path d="M154.843,27.357c0.441,0.289,1.223,0.596,1.971,0.596c1.088,0,1.599-0.543,1.599-1.225c0-0.713-0.425-1.104-1.529-1.512
			c-1.479-0.527-2.176-1.343-2.176-2.329c0-1.326,1.069-2.414,2.839-2.414c0.833,0,1.563,0.238,2.021,0.51l-0.373,1.088
			c-0.323-0.204-0.918-0.476-1.684-0.476c-0.884,0-1.377,0.51-1.377,1.122c0,0.68,0.493,0.985,1.564,1.394
			c1.428,0.544,2.157,1.257,2.157,2.481c0,1.445-1.121,2.466-3.076,2.466c-0.9,0-1.733-0.222-2.313-0.562L154.843,27.357z"/>
		<path d="M168.662,26.645c0,0.85,0.017,1.598,0.067,2.244h-1.326l-0.085-1.345h-0.032c-0.393,0.664-1.26,1.529-2.722,1.529
			c-1.291,0-2.838-0.714-2.838-3.603v-4.81h1.495v4.556c0,1.563,0.476,2.617,1.836,2.617c1.003,0,1.7-0.697,1.972-1.358
			c0.086-0.222,0.138-0.492,0.138-0.767V20.66h1.495V26.645L168.662,26.645z"/>
		<path d="M170.21,28.021l3.723-4.845c0.357-0.442,0.697-0.833,1.071-1.275v-0.034h-4.454v-1.207h6.273l-0.019,0.936l-3.672,4.776
			c-0.34,0.459-0.68,0.867-1.054,1.291v0.035h4.811v1.189h-6.681L170.21,28.021L170.21,28.021z"/>
	</g>
</g>
</svg>
