<?xml version="1.0" encoding="utf-8"?>
<!-- Generator: Adobe Illustrator 16.0.0, SVG Export Plug-In . SVG Version: 6.00 Build 0)  -->
<!DOCTYPE svg PUBLIC "-//W3C//DTD SVG 1.1//EN" "http://www.w3.org/Graphics/SVG/1.1/DTD/svg11.dtd">
<svg version="1.1" id="Layer_1" xmlns="http://www.w3.org/2000/svg" xmlns:xlink="http://www.w3.org/1999/xlink" x="0px" y="0px"
	 width="118.739px" height="12.584px" viewBox="4.63 9.708 118.739 12.584" enable-background="new 4.63 9.708 118.739 12.584"
	 xml:space="preserve">
<g>
	<path fill="#FFFFFF" d="M4.63,15.244V9.722l1.348,1.345v3.838l-0.844,0.842L4.63,15.244z M5.978,17.095v3.848l-1.348,1.35v-5.521
		l0.503-0.521L5.978,17.095z M6.292,12.018l-0.008-0.962h0.948l3.256,3.271v0.952l-0.931-0.004L6.292,12.018z M10.812,14.902v-3.847
		l1.348-1.348v5.535l-0.492,0.503L10.812,14.902z M12.16,16.771v5.517l-1.348-1.348v-3.846l0.856-0.844L12.16,16.771z"/>
	<path fill="#FFFFFF" d="M15.663,14.902l-0.844,0.844l-0.503-0.503v-3.936l0.665-0.683l0.683,0.683V14.902z M14.315,20.688
		l0.665,0.684l0.683-0.684v-3.594l-0.844-0.844l-0.503,0.521V20.688z M20.928,10.392l-0.665,0.683h-4.366l-0.665-0.683l0.665-0.665
		h4.366L20.928,10.392z M15.897,22.287l-0.665-0.665l0.665-0.683h4.366l0.665,0.683l-0.665,0.665H15.897z M21.845,15.243
		l-0.492,0.503l-0.856-0.844v-3.595l0.674-0.683l0.674,0.683V15.243z M21.845,20.688l-0.674,0.684l-0.674-0.684v-3.594l0.856-0.844
		l0.492,0.521V20.688z"/>
	<path fill="#FFFFFF" d="M31.53,9.727l-1.33,1.348h-4.852l-1.348-1.348H31.53z M28.439,15.928l-0.503,0.483l-0.845-0.823v-3.6
		l0.665-0.663l0.683,0.663V15.928z M28.439,21.626l-0.683,0.666l-0.665-0.666V17.76l0.845-0.846l0.503,0.504V21.626z"/>
	<path fill="#FFFFFF" d="M38.358,15.244V9.722l1.348,1.345v3.838l-0.844,0.842L38.358,15.244z M39.706,17.095v3.848l-1.348,1.35
		v-5.521l0.503-0.521L39.706,17.095z M44.467,15.333l0.683,0.674l-0.683,0.674h-4.69l-0.665-0.674l0.665-0.674H44.467z
		 M44.54,14.902v-3.847l1.348-1.348v5.535l-0.492,0.503L44.54,14.902z M45.887,16.771v5.517l-1.348-1.348v-3.846l0.856-0.844
		L45.887,16.771z"/>
	<path fill="#FFFFFF" d="M48.043,15.243V9.96l1.348,1.348v3.595l-0.844,0.844L48.043,15.243z M49.391,17.094v3.594l-1.348,1.348
		v-5.265l0.503-0.521L49.391,17.094z M55.573,9.727l-1.33,1.348h-4.618l-1.33-1.348H55.573z M55.573,22.287h-7.278l1.33-1.348h4.618
		L55.573,22.287z M54.153,15.333l0.683,0.674l-0.683,0.674h-4.69l-0.665-0.674l0.665-0.674H54.153z"/>
	<path fill="#FFFFFF" d="M59.076,14.902l-0.844,0.844l-0.503-0.503v-3.936l0.665-0.683l0.683,0.683V14.902z M58.394,22.287
		l-0.665-0.665l0.665-0.683h5.283l0.665,0.683l-0.665,0.665H58.394z M63.838,15.333l0.684,0.674l-0.684,0.674h-4.69l-0.665-0.674
		l0.665-0.674H63.838z M65.258,10.392l-0.674,0.683h-5.275l-0.664-0.683l0.665-0.665h5.283L65.258,10.392z M65.258,20.688
		l-0.674,0.684l-0.674-0.684v-3.594l0.855-0.844l0.492,0.521V20.688z"/>
	<path fill="#FFFFFF" d="M67.414,15.243V9.96l1.348,1.348v3.595l-0.844,0.844L67.414,15.243z M68.762,17.095v3.848l-1.348,1.35
		v-5.521l0.504-0.521L68.762,17.095z M74.691,9.727l-1.33,1.348h-4.365l-1.33-1.348H74.691z M73.523,15.333l0.684,0.674
		l-0.684,0.674h-4.689l-0.664-0.674l0.664-0.674H73.523z M73.596,14.902v-3.595l1.348-1.348v5.283l-0.492,0.503L73.596,14.902z
		 M74.943,16.771v5.517l-1.348-1.348v-3.846l0.855-0.844L74.943,16.771z"/>
	<path fill="#FFFFFF" d="M78.447,14.902l-0.844,0.844L77.1,15.243V9.96l1.348,1.348V14.902z M78.447,20.942l-1.348,1.35v-5.521
		l0.504-0.521l0.844,0.845V20.942z M83.711,10.392l-0.664,0.683h-4.365l-1.33-1.348h5.695L83.711,10.392z M83.209,15.333
		l0.682,0.674l-0.682,0.674H78.52l-0.666-0.674l0.666-0.674H83.209z M84.629,15.243l-0.492,0.503l-0.855-0.844v-3.595l0.674-0.683
		l0.674,0.683V15.243z"/>
	<path fill="#FFFFFF" d="M86.785,15.244V9.722l1.348,1.345v3.838l-0.846,0.842L86.785,15.244z M88.133,17.094v3.594l-1.348,1.348
		v-5.265l0.502-0.521L88.133,17.094z M94.314,22.287h-7.277l1.328-1.348h4.619L94.314,22.287z"/>
	<path fill="#FFFFFF" d="M96.469,15.243V9.96l1.348,1.348v3.595l-0.844,0.844L96.469,15.243z M97.816,17.095v3.848l-1.348,1.35
		v-5.521l0.504-0.521L97.816,17.095z M103.746,9.727l-1.328,1.348h-4.367l-1.33-1.348H103.746z M102.578,15.333l0.684,0.674
		l-0.684,0.674h-4.689l-0.664-0.674l0.664-0.674H102.578z M102.65,14.902v-3.595l1.348-1.348v5.283l-0.492,0.503L102.65,14.902z
		 M103.998,16.771v5.517l-1.348-1.348v-3.846l0.855-0.844L103.998,16.771z"/>
	<path fill="#FFFFFF" d="M106.154,15.243V9.96l1.348,1.348v3.595l-0.844,0.844L106.154,15.243z M107.502,17.095v3.848l-1.348,1.35
		v-5.521l0.504-0.521L107.502,17.095z M113.432,9.727l-1.328,1.348h-4.367l-1.33-1.348H113.432z M109.246,12.077l0.664-0.662
		l0.684,0.662v2.989l-0.684,0.68l-0.664-0.68V12.077z M112.336,14.902v-3.595l1.348-1.348v5.283l-0.492,0.503L112.336,14.902z
		 M113.684,16.771v5.517l-1.348-1.348v-3.846l0.855-0.844L113.684,16.771z"/>
	<path fill="#FFFFFF" d="M115.84,15.243V9.96l1.348,1.348v3.595l-0.844,0.844L115.84,15.243z M117.188,17.095v3.848l-1.348,1.35
		v-5.521l0.504-0.521L117.188,17.095z M123.117,9.727l-1.328,1.348h-4.367l-1.33-1.348H123.117z M121.949,15.333l0.684,0.674
		l-0.684,0.674h-4.689l-0.664-0.674l0.664-0.674H121.949z M122.021,14.902v-3.595l1.348-1.348v5.283l-0.492,0.503L122.021,14.902z
		 M123.369,16.771v5.517l-1.348-1.348v-3.846l0.855-0.844L123.369,16.771z"/>
</g>
</svg>
