<?xml version="1.0"?>
<svg width="180" height="150" xmlns="http://www.w3.org/2000/svg" xmlns:svg="http://www.w3.org/2000/svg" enable-background="new 0 0 180 150" version="1.1" xml:space="preserve">
 <g class="layer">
  <title>Layer 1</title>
  <g id="svg_1">
   <g id="svg_2">
    <g id="svg_3">
     <g id="svg_4">
      <polygon fill="#1C75BC" id="svg_5" points="45.588,148.99 1.177,75 45.588,1.009 134.41,1.009 178.822,75 134.41,148.99     "/>
      <path d="m134.98,150l-89.96,0l-45.02,-75l0.31,-0.52l44.71,-74.48l89.96,0l45.02,75l-0.31,0.52l-44.71,74.48zm-88.82,-2.02l87.68,0l43.81,-72.98l-43.81,-72.98l-87.68,0l-43.81,72.98l43.81,72.98z" fill="#2F5190" id="svg_6"/>
     </g>
    </g>
   </g>
   <g id="svg_27">
    <g id="svg_28">
     <path d="m125.31,72.58" fill="#FFFFFF" id="svg_29" stroke="#FFFFFF" stroke-miterlimit="10" stroke-width="15"/>
    </g>
    <g id="svg_30">
     <path d="m54.69,72.58" fill="#FFFFFF" id="svg_31" stroke="#FFFFFF" stroke-miterlimit="10" stroke-width="15"/>
    </g>
    <g id="svg_32">
     <rect fill="#FFFFFF" height="71.67" id="svg_33" width="6.05" x="51.69" y="36.25"/>
    </g>
    <g id="svg_34">
     <g id="svg_35">
      <rect fill="#FFFFFF" height="6.06" id="svg_36" width="70.61" x="54.69" y="34.21"/>
     </g>
     <g id="svg_37">
      <path d="m126.35,108.96" fill="#FFFFFF" id="svg_38" stroke="#FFFFFF" stroke-miterlimit="10" stroke-width="15"/>
     </g>
     <g id="svg_39">
      <path d="m54.69,37.23" fill="#FFFFFF" id="svg_40" stroke="#FFFFFF" stroke-miterlimit="10" stroke-width="15"/>
     </g>
     <g id="svg_41">
      <path d="m54.72,107.95" fill="#FFFFFF" id="svg_42" stroke="#FFFFFF" stroke-miterlimit="10" stroke-width="15"/>
     </g>
     <g id="svg_43">
      <path d="m126.35,36.25" fill="#FFFFFF" id="svg_44" stroke="#FFFFFF" stroke-miterlimit="10" stroke-width="15"/>
     </g>
     <g id="svg_45">
      <rect fill="#FFFFFF" height="6.06" id="svg_46" width="71.63" x="54.72" y="104.92"/>
     </g>
     <g id="svg_47">
      <rect fill="#FFFFFF" height="70.71" id="svg_48" width="6.05" x="122.33" y="37.23"/>
     </g>
    </g>
    <g id="svg_49">
     <path d="m72.35,37.23c0,9.76 -7.91,17.68 -17.66,17.68s-17.65,-7.92 -17.65,-17.68c0,-9.75 7.9,-17.67 17.65,-17.67s17.66,7.92 17.66,17.67z" fill="#FFFFFF" id="svg_50"/>
    </g>
    <g id="svg_51">
     <path d="m142.96,37.23c0,9.76 -7.9,17.68 -17.65,17.68s-17.65,-7.92 -17.65,-17.68c0,-9.75 7.9,-17.67 17.65,-17.67s17.65,7.92 17.65,17.67z" fill="#FFFFFF" id="svg_52"/>
    </g>
    <g id="svg_53">
     <path d="m72.35,107.92c0,9.76 -7.91,17.67 -17.66,17.67s-17.65,-7.91 -17.65,-17.67c0,-9.76 7.9,-17.67 17.65,-17.67s17.66,7.91 17.66,17.67z" fill="#FFFFFF" id="svg_54"/>
    </g>
    <g id="svg_55">
     <path d="m142.96,107.92c0,9.76 -7.9,17.67 -17.65,17.67s-17.65,-7.91 -17.65,-17.67c0,-9.76 7.9,-17.67 17.65,-17.67s17.65,7.91 17.65,17.67z" fill="#FFFFFF" id="svg_56"/>
    </g>
   </g>
   <g id="svg_57">
    <g id="svg_58">
     <ellipse cx="54.69" cy="37.23" fill="none" id="svg_59" rx="17.65" ry="17.67"/>
    </g>
    <g id="svg_60">
     <g id="svg_61">
      <path d="m39.55,31.67c0.8,-0.13 1.92,-0.24 3.5,-0.24c1.59,0 2.72,0.31 3.48,0.92c0.73,0.58 1.22,1.53 1.22,2.65s-0.37,2.07 -1.05,2.71c-0.88,0.83 -2.18,1.2 -3.71,1.2c-0.34,0 -0.64,-0.01 -0.88,-0.05l0,4.09l-2.56,0l0,-11.28l0,0zm2.56,5.19c0.22,0.05 0.49,0.07 0.87,0.07c1.37,0 2.22,-0.7 2.22,-1.87c0,-1.05 -0.73,-1.67 -2.02,-1.67c-0.53,0 -0.88,0.04 -1.07,0.1l0,3.37l0,0z" id="svg_62"/>
     </g>
     <g id="svg_63">
      <path d="m49.4,31.67c0.83,-0.13 2.06,-0.24 3.44,-0.24c1.69,0 2.88,0.26 3.69,0.9c0.67,0.55 1.05,1.34 1.05,2.4c0,1.46 -1.03,2.46 -2.02,2.81l0,0.05c0.8,0.32 1.24,1.09 1.53,2.14c0.35,1.29 0.71,2.78 0.93,3.22l-2.65,0c-0.18,-0.32 -0.45,-1.25 -0.79,-2.66c-0.31,-1.43 -0.8,-1.81 -1.85,-1.83l-0.78,0l0,4.49l-2.56,0l0.01,-11.28l0,0zm2.56,4.92l1.01,0c1.29,0 2.05,-0.64 2.05,-1.64c0,-1.06 -0.71,-1.58 -1.89,-1.6c-0.63,0 -0.99,0.05 -1.17,0.08l0,3.16l0,0z" id="svg_64"/>
     </g>
     <g id="svg_65">
      <path d="m69.83,37.12c0,3.75 -2.27,6.02 -5.61,6.02c-3.39,0 -5.37,-2.56 -5.37,-5.82c0,-3.43 2.19,-5.99 5.56,-5.99c3.51,0 5.42,2.63 5.42,5.79zm-8.25,0.15c0,2.24 1.05,3.82 2.78,3.82c1.74,0 2.74,-1.67 2.74,-3.89c0,-2.05 -0.98,-3.81 -2.76,-3.81c-1.75,0 -2.76,1.66 -2.76,3.88z" id="svg_66"/>
     </g>
    </g>
   </g>
   <g id="svg_67">
    <g id="svg_68">
     <ellipse cx="54.72" cy="107.95" fill="none" id="svg_69" rx="17.65" ry="17.67"/>
    </g>
    <g id="svg_70">
     <g id="svg_71">
      <path d="m53,110.73l-0.81,2.93l-2.68,0l3.49,-11.43l3.39,0l3.54,11.43l-2.78,0l-0.88,-2.93l-3.27,0zm2.89,-1.94l-0.71,-2.42c-0.2,-0.68 -0.4,-1.53 -0.57,-2.21l-0.04,0c-0.17,0.68 -0.34,1.55 -0.52,2.21l-0.68,2.42l2.52,0z" id="svg_72"/>
     </g>
    </g>
   </g>
   <g id="svg_73">
    <g id="svg_74">
     <ellipse cx="125.31" cy="107.92" fill="none" id="svg_75" rx="17.65" ry="17.67"/>
    </g>
    <g id="svg_76">
     <g id="svg_77">
      <path d="m121.07,102.34c0.68,-0.14 2.05,-0.24 3.34,-0.24c1.57,0 2.54,0.15 3.37,0.65c0.8,0.42 1.37,1.2 1.37,2.24c0,1.02 -0.59,1.96 -1.88,2.44l0,0.03c1.31,0.36 2.27,1.34 2.27,2.82c0,1.03 -0.47,1.85 -1.18,2.42c-0.83,0.67 -2.22,1.04 -4.49,1.04c-1.27,0 -2.22,-0.09 -2.8,-0.17l0,-11.23l0,0zm2.56,4.38l0.85,0c1.35,0 2.08,-0.56 2.08,-1.41c0,-0.87 -0.66,-1.32 -1.83,-1.32c-0.56,0 -0.88,0.03 -1.1,0.06l0,2.67l0,0zm0,5.07c0.26,0.03 0.56,0.03 1,0.03c1.17,0 2.2,-0.44 2.2,-1.64c0,-1.16 -1.03,-1.62 -2.32,-1.62l-0.88,0l0,3.23l0,0z" id="svg_78"/>
     </g>
    </g>
   </g>
   <g id="svg_79">
    <g id="svg_80">
     <ellipse cx="125.31" cy="37.23" fill="none" id="svg_81" rx="17.65" ry="17.67"/>
    </g>
    <g id="svg_82">
     <g id="svg_83">
      <path d="m129.7,42.64c-0.48,0.24 -1.55,0.49 -2.94,0.49c-3.94,0 -5.98,-2.46 -5.98,-5.72c0,-3.9 2.78,-6.07 6.24,-6.07c1.33,0 2.35,0.27 2.81,0.51l-0.53,2.05c-0.52,-0.22 -1.25,-0.42 -2.16,-0.42c-2.05,0 -3.65,1.24 -3.65,3.78c0,2.29 1.36,3.73 3.66,3.73c0.78,0 1.65,-0.17 2.15,-0.37l0.4,2.02z" id="svg_84"/>
     </g>
    </g>
   </g>
  </g>
 </g>
</svg>