<?xml version="1.0"?>
<svg width="180" height="150" xmlns="http://www.w3.org/2000/svg" xmlns:svg="http://www.w3.org/2000/svg" enable-background="new 0 0 180 150" version="1.1" xml:space="preserve">
 <g class="layer">
  <title>Layer 1</title>
  <g id="svg_1">
   <g id="svg_2">
    <g id="svg_3">
     <g id="svg_4">
      <polygon fill="#1C75BC" id="svg_5" points="45.587,148.99 1.176,75 45.587,1.009 134.41,1.009 178.822,75 134.41,148.99     "/>
      <path d="m134.98,150l-89.96,0l-45.02,-75l0.31,-0.52l44.71,-74.48l89.96,0l45.02,75l-0.31,0.52l-44.71,74.48zm-88.82,-2.02l87.68,0l43.81,-72.98l-43.81,-72.98l-87.68,0l-43.81,72.98l43.81,72.98z" fill="#2F5190" id="svg_6"/>
     </g>
     <g id="svg_7"/>
    </g>
   </g>
   <g id="svg_27">
    <g id="svg_28">
     <path d="m125.31,72.58" fill="#FFFFFF" id="svg_29" stroke="#FFFFFF" stroke-miterlimit="10" stroke-width="15"/>
    </g>
    <g id="svg_30">
     <path d="m54.69,72.58" fill="#FFFFFF" id="svg_31" stroke="#FFFFFF" stroke-miterlimit="10" stroke-width="15"/>
    </g>
    <g id="svg_32">
     <rect fill="#FFFFFF" height="71.67" id="svg_33" width="6.05" x="51.69" y="36.25"/>
    </g>
    <g id="svg_34">
     <g id="svg_35">
      <rect fill="#FFFFFF" height="6.06" id="svg_36" width="70.62" x="54.69" y="34.21"/>
     </g>
     <g id="svg_37">
      <path d="m126.35,108.96" fill="#FFFFFF" id="svg_38" stroke="#FFFFFF" stroke-miterlimit="10" stroke-width="15"/>
     </g>
     <g id="svg_39">
      <path d="m54.69,37.23" fill="#FFFFFF" id="svg_40" stroke="#FFFFFF" stroke-miterlimit="10" stroke-width="15"/>
     </g>
     <g id="svg_41">
      <path d="m54.72,107.95" fill="#FFFFFF" id="svg_42" stroke="#FFFFFF" stroke-miterlimit="10" stroke-width="15"/>
     </g>
     <g id="svg_43">
      <path d="m126.35,36.25" fill="#FFFFFF" id="svg_44" stroke="#FFFFFF" stroke-miterlimit="10" stroke-width="15"/>
     </g>
     <g id="svg_45">
      <rect fill="#FFFFFF" height="6.06" id="svg_46" width="71.63" x="54.72" y="104.92"/>
     </g>
     <g id="svg_47">
      <rect fill="#FFFFFF" height="70.71" id="svg_48" width="6.05" x="122.33" y="37.23"/>
     </g>
    </g>
    <g id="svg_49">
     <path d="m72.34,37.23c0,9.76 -7.9,17.68 -17.65,17.68s-17.65,-7.92 -17.65,-17.68c0,-9.75 7.9,-17.67 17.65,-17.67s17.65,7.92 17.65,17.67z" fill="#FFFFFF" id="svg_50"/>
    </g>
    <g id="svg_51">
     <path d="m142.96,37.23c0,9.76 -7.9,17.68 -17.65,17.68c-9.75,0 -17.66,-7.92 -17.66,-17.68c0,-9.75 7.91,-17.67 17.66,-17.67c9.75,0 17.65,7.92 17.65,17.67z" fill="#FFFFFF" id="svg_52"/>
    </g>
    <g id="svg_53">
     <path d="m72.34,107.92c0,9.76 -7.9,17.67 -17.65,17.67s-17.65,-7.91 -17.65,-17.67c0,-9.76 7.9,-17.67 17.65,-17.67s17.65,7.91 17.65,17.67z" fill="#FFFFFF" id="svg_54"/>
    </g>
    <g id="svg_55">
     <path d="m142.96,107.92c0,9.76 -7.9,17.67 -17.65,17.67c-9.75,0 -17.66,-7.91 -17.66,-17.67c0,-9.76 7.91,-17.67 17.66,-17.67c9.75,0 17.65,7.91 17.65,17.67z" fill="#FFFFFF" id="svg_56"/>
    </g>
   </g>
   <g id="svg_57">
    <g id="svg_58">
     <ellipse cx="54.6" cy="37.23" fill="none" id="svg_59" rx="17.65" ry="17.67"/>
    </g>
    <g id="svg_60">
     <g id="svg_61">
      <path d="m52.88,40.02l-0.81,2.93l-2.68,0l3.49,-11.43l3.39,0l3.54,11.43l-2.78,0l-0.88,-2.93l-3.27,0l0,0zm2.9,-1.94l-0.71,-2.42c-0.21,-0.68 -0.41,-1.53 -0.58,-2.21l-0.03,0c-0.17,0.68 -0.34,1.55 -0.53,2.21l-0.68,2.42l2.53,0z" id="svg_62"/>
     </g>
    </g>
   </g>
   <g id="svg_63">
    <g id="svg_64">
     <ellipse cx="54.72" cy="107.95" fill="none" id="svg_65" rx="17.65" ry="17.67"/>
    </g>
    <g id="svg_66">
     <g id="svg_67">
      <path d="m50.48,102.37c0.68,-0.14 2.05,-0.24 3.34,-0.24c1.57,0 2.54,0.15 3.37,0.64c0.8,0.43 1.37,1.21 1.37,2.24c0,1.02 -0.59,1.97 -1.88,2.44l0,0.04c1.3,0.35 2.27,1.34 2.27,2.81c0,1.04 -0.47,1.85 -1.19,2.43c-0.83,0.66 -2.22,1.03 -4.49,1.03c-1.27,0 -2.22,-0.08 -2.79,-0.17l0,-11.22l0,0zm2.56,4.37l0.85,0c1.35,0 2.08,-0.56 2.08,-1.41c0,-0.86 -0.66,-1.32 -1.83,-1.32c-0.56,0 -0.88,0.04 -1.1,0.07l0,2.66l0,0zm0,5.07c0.25,0.04 0.56,0.04 1,0.04c1.17,0 2.2,-0.44 2.2,-1.65c0,-1.15 -1.03,-1.61 -2.32,-1.61l-0.88,0l0,3.22l0,0z" id="svg_68"/>
     </g>
    </g>
   </g>
   <g id="svg_69">
    <g id="svg_70">
     <ellipse cx="125.31" cy="107.95" fill="none" id="svg_71" rx="17.65" ry="17.67"/>
    </g>
    <g id="svg_72">
     <g id="svg_73">
      <path d="m129.69,113.35c-0.47,0.23 -1.54,0.49 -2.93,0.49c-3.95,0 -5.98,-2.46 -5.98,-5.72c0,-3.9 2.78,-6.07 6.23,-6.07c1.34,0 2.36,0.27 2.82,0.51l-0.53,2.05c-0.52,-0.22 -1.25,-0.42 -2.16,-0.42c-2.06,0 -3.65,1.24 -3.65,3.78c0,2.29 1.36,3.73 3.66,3.73c0.78,0 1.64,-0.17 2.15,-0.37l0.39,2.02z" id="svg_74"/>
     </g>
    </g>
   </g>
   <g id="svg_75">
    <g id="svg_76">
     <ellipse cx="125.31" cy="37.19" fill="none" id="svg_77" rx="17.65" ry="17.67"/>
    </g>
    <g id="svg_78">
     <g id="svg_79">
      <path d="m120.26,31.61c0.95,-0.15 2.18,-0.23 3.49,-0.23c2.17,0 3.57,0.39 4.67,1.22c1.19,0.88 1.94,2.29 1.94,4.31c0,2.18 -0.8,3.69 -1.9,4.63c-1.2,1 -3.03,1.47 -5.27,1.47c-1.34,0 -2.29,-0.08 -2.93,-0.17l0,-11.23l0,0zm2.59,9.33c0.22,0.05 0.58,0.05 0.9,0.05c2.34,0.02 3.86,-1.27 3.86,-4c0.02,-2.38 -1.37,-3.63 -3.59,-3.63c-0.58,0 -0.95,0.05 -1.17,0.1l0,7.48l0,0l0,0z" id="svg_80"/>
     </g>
    </g>
   </g>
  </g>
 </g>
</svg>