<?xml version="1.0"?>
<svg width="180" height="150" xmlns="http://www.w3.org/2000/svg" xmlns:svg="http://www.w3.org/2000/svg" enable-background="new 0 0 180 150" version="1.1" xml:space="preserve">
 <g class="layer">
  <title>Layer 1</title>
  <g id="svg_1">
   <g id="svg_2">
    <g id="svg_3">
     <g id="svg_4">
      <polygon fill="#1C75BC" id="svg_5" points="45.588,148.99 1.176,75 45.588,1.009 134.412,1.009 178.822,75 134.412,148.99     "/>
      <path d="m134.98,150l-89.96,0l-45.02,-75l0.31,-0.52l44.71,-74.48l89.96,0l45.02,75l-0.31,0.52l-44.71,74.48zm-88.82,-2.02l87.68,0l43.81,-72.98l-43.81,-72.98l-87.68,0l-43.81,72.98l43.81,72.98z" fill="#2F5190" id="svg_6"/>
     </g>
    </g>
    <g id="svg_10"/>
   </g>
   <g id="svg_27">
    <g id="svg_28">
     <path d="m125.31,72.58" fill="#FFFFFF" id="svg_29" stroke="#FFFFFF" stroke-miterlimit="10" stroke-width="15"/>
    </g>
    <g id="svg_30">
     <path d="m54.69,72.58" fill="#FFFFFF" id="svg_31" stroke="#FFFFFF" stroke-miterlimit="10" stroke-width="15"/>
    </g>
    <g id="svg_32">
     <rect fill="#FFFFFF" height="71.67" id="svg_33" width="6.05" x="51.69" y="36.25"/>
    </g>
    <g id="svg_34">
     <g id="svg_35">
      <rect fill="#FFFFFF" height="6.06" id="svg_36" width="70.62" x="54.69" y="34.21"/>
     </g>
     <g id="svg_37">
      <polygon fill="#FFFFFF" id="svg_38" points="124.207,111.101 52.551,39.376 56.831,35.095 128.486,106.819     "/>
     </g>
     <g id="svg_39">
      <polygon fill="#FFFFFF" id="svg_40" points="56.857,110.089 52.579,105.806 124.207,34.104 128.486,38.388     "/>
     </g>
     <g id="svg_41">
      <rect fill="#FFFFFF" height="6.06" id="svg_42" width="71.63" x="54.72" y="104.92"/>
     </g>
     <g id="svg_43">
      <rect fill="#FFFFFF" height="70.71" id="svg_44" width="6.05" x="122.33" y="37.23"/>
     </g>
    </g>
    <g id="svg_45">
     <path d="m72.35,37.23c0,9.76 -7.91,17.68 -17.66,17.68c-9.75,0 -17.65,-7.92 -17.65,-17.68c0,-9.75 7.9,-17.67 17.65,-17.67c9.75,0 17.66,7.92 17.66,17.67z" fill="#FFFFFF" id="svg_46"/>
    </g>
    <g id="svg_47">
     <path d="m142.96,37.23c0,9.76 -7.9,17.68 -17.65,17.68c-9.75,0 -17.66,-7.92 -17.66,-17.68c0,-9.75 7.91,-17.67 17.66,-17.67c9.75,0 17.65,7.92 17.65,17.67z" fill="#FFFFFF" id="svg_48"/>
    </g>
    <g id="svg_49">
     <ellipse cx="90" cy="72.58" fill="#FFFFFF" id="svg_50" rx="17.66" ry="17.67"/>
    </g>
    <g id="svg_51">
     <path d="m72.35,107.92c0,9.76 -7.91,17.67 -17.66,17.67c-9.75,0 -17.65,-7.91 -17.65,-17.67c0,-9.76 7.9,-17.67 17.65,-17.67c9.75,0 17.66,7.91 17.66,17.67z" fill="#FFFFFF" id="svg_52"/>
    </g>
    <g id="svg_53">
     <path d="m142.96,107.92c0,9.76 -7.9,17.67 -17.65,17.67c-9.75,0 -17.66,-7.91 -17.66,-17.67c0,-9.76 7.91,-17.67 17.66,-17.67c9.75,0 17.65,7.91 17.65,17.67z" fill="#FFFFFF" id="svg_54"/>
    </g>
   </g>
   <g id="svg_55">
    <g id="svg_56">
     <ellipse cx="54.69" cy="37.23" fill="none" id="svg_57" rx="17.65" ry="17.67"/>
    </g>
    <g id="svg_58">
     <g id="svg_59">
      <path d="m39.55,31.67c0.8,-0.13 1.92,-0.24 3.49,-0.24c1.6,0 2.73,0.31 3.49,0.92c0.73,0.58 1.22,1.53 1.22,2.65s-0.37,2.07 -1.05,2.71c-0.88,0.83 -2.18,1.2 -3.71,1.2c-0.34,0 -0.64,-0.01 -0.88,-0.05l0,4.09l-2.56,0l0,-11.28l0,0zm2.56,5.19c0.22,0.05 0.49,0.07 0.87,0.07c1.37,0 2.22,-0.7 2.22,-1.87c0,-1.05 -0.73,-1.68 -2.02,-1.68c-0.52,0 -0.88,0.05 -1.07,0.11l0,3.37l0,0z" id="svg_60"/>
     </g>
     <g id="svg_61">
      <path d="m49.4,31.67c0.83,-0.13 2.06,-0.24 3.44,-0.24c1.69,0 2.88,0.26 3.69,0.9c0.68,0.55 1.05,1.34 1.05,2.39c0,1.46 -1.04,2.46 -2.02,2.82l0,0.05c0.8,0.32 1.24,1.09 1.53,2.14c0.35,1.29 0.71,2.78 0.93,3.22l-2.65,0c-0.18,-0.32 -0.45,-1.25 -0.79,-2.66c-0.31,-1.43 -0.8,-1.82 -1.85,-1.83l-0.78,0l0,4.49l-2.56,0l0.01,-11.28l0,0zm2.56,4.92l1.02,0c1.28,0 2.04,-0.64 2.04,-1.64c0,-1.06 -0.71,-1.58 -1.89,-1.6c-0.63,0 -0.98,0.05 -1.17,0.09l0,3.15l0,0z" id="svg_62"/>
     </g>
     <g id="svg_63">
      <path d="m69.83,37.12c0,3.75 -2.27,6.02 -5.61,6.02c-3.39,0 -5.37,-2.57 -5.37,-5.82c0,-3.43 2.19,-5.99 5.56,-5.99c3.51,0 5.42,2.63 5.42,5.79zm-8.25,0.15c0,2.24 1.05,3.81 2.78,3.81c1.74,0 2.74,-1.66 2.74,-3.88c0,-2.05 -0.98,-3.82 -2.76,-3.82c-1.75,0.01 -2.76,1.67 -2.76,3.89z" id="svg_64"/>
     </g>
    </g>
   </g>
   <g id="svg_65">
    <g id="svg_66">
     <ellipse cx="54.72" cy="107.92" fill="none" id="svg_67" rx="17.65" ry="17.67"/>
    </g>
    <g id="svg_68">
     <g id="svg_69">
      <path d="m53,110.7l-0.82,2.94l-2.67,0l3.49,-11.44l3.38,0l3.55,11.44l-2.78,0l-0.89,-2.94l-3.26,0zm2.9,-1.93l-0.72,-2.43c-0.2,-0.68 -0.41,-1.52 -0.58,-2.2l-0.03,0c-0.17,0.68 -0.34,1.54 -0.52,2.2l-0.68,2.43l2.53,0z" id="svg_70"/>
     </g>
    </g>
   </g>
   <g id="svg_71">
    <g id="svg_72">
     <ellipse cx="125.36" cy="107.92" fill="none" id="svg_73" rx="17.65" ry="17.67"/>
    </g>
    <g id="svg_74">
     <g id="svg_75">
      <path d="m121.12,102.34c0.68,-0.14 2.05,-0.24 3.34,-0.24c1.58,0 2.54,0.15 3.37,0.65c0.8,0.42 1.37,1.2 1.37,2.24c0,1.02 -0.59,1.96 -1.88,2.44l0,0.03c1.31,0.36 2.27,1.34 2.27,2.82c0,1.03 -0.47,1.85 -1.18,2.42c-0.84,0.67 -2.22,1.04 -4.49,1.04c-1.27,0 -2.22,-0.09 -2.8,-0.17l0,-11.23l0,0zm2.56,4.38l0.85,0c1.35,0 2.08,-0.56 2.08,-1.41c0,-0.87 -0.66,-1.32 -1.83,-1.32c-0.56,0 -0.88,0.03 -1.1,0.06l0,2.67l0,0zm0,5.07c0.26,0.03 0.56,0.03 1,0.03c1.17,0 2.2,-0.44 2.2,-1.64c0,-1.16 -1.03,-1.62 -2.32,-1.62l-0.88,0l0,3.23l0,0z" id="svg_76"/>
     </g>
    </g>
   </g>
   <g id="svg_77">
    <g id="svg_78">
     <ellipse cx="125.31" cy="37.23" fill="none" id="svg_79" rx="17.65" ry="17.67"/>
    </g>
    <g id="svg_80">
     <g id="svg_81">
      <path d="m129.7,42.64c-0.48,0.24 -1.55,0.49 -2.94,0.49c-3.94,0 -5.98,-2.46 -5.98,-5.72c0,-3.9 2.78,-6.07 6.24,-6.07c1.34,0 2.35,0.27 2.81,0.51l-0.52,2.05c-0.53,-0.22 -1.26,-0.42 -2.17,-0.42c-2.05,0 -3.65,1.24 -3.65,3.78c0,2.29 1.36,3.73 3.66,3.73c0.78,0 1.65,-0.17 2.16,-0.37l0.39,2.02z" id="svg_82"/>
     </g>
    </g>
   </g>
   <g id="svg_83">
    <g id="svg_84">
     <ellipse cx="90" cy="72.53" fill="none" id="svg_85" rx="17.66" ry="17.67"/>
    </g>
    <g id="svg_86">
     <g id="svg_87">
      <path d="m84.95,66.95c0.95,-0.15 2.19,-0.24 3.49,-0.24c2.17,0 3.57,0.39 4.68,1.22c1.18,0.88 1.93,2.29 1.93,4.31c0,2.19 -0.8,3.7 -1.9,4.63c-1.2,1 -3.03,1.48 -5.27,1.48c-1.34,0 -2.29,-0.09 -2.93,-0.17l0,-11.23zm2.59,9.33c0.22,0.05 0.58,0.05 0.9,0.05c2.34,0.02 3.86,-1.27 3.86,-4c0.02,-2.38 -1.37,-3.63 -3.59,-3.63c-0.58,0 -0.95,0.05 -1.17,0.1l0,7.48l0,0z" id="svg_88"/>
     </g>
    </g>
   </g>
  </g>
 </g>
</svg>