<?xml version="1.0" encoding="utf-8"?>
<!-- Generator: Adobe Illustrator 16.0.0, SVG Export Plug-In . SVG Version: 6.00 Build 0)  -->
<!DOCTYPE svg PUBLIC "-//W3C//DTD SVG 1.1//EN" "http://www.w3.org/Graphics/SVG/1.1/DTD/svg11.dtd">
<svg version="1.1" id="Layer_1" xmlns="http://www.w3.org/2000/svg" xmlns:xlink="http://www.w3.org/1999/xlink" x="0px" y="0px"
	 width="180px" height="150px" viewBox="0 0 180 150" enable-background="new 0 0 180 150" xml:space="preserve">
<g>
	<g>
		<g>
			<g>
				<polygon fill="#1C75BC" points="45.588,148.99 1.177,75 45.588,1.009 134.41,1.009 178.822,75 134.41,148.99 				"/>
				<path fill="#2F5190" d="M134.98,150H45.017L0,75l0.313-0.521L45.017,0h89.963L180,75l-0.313,0.521L134.98,150z M46.158,147.981
					h87.684L177.646,75L133.842,2.019H46.158L2.353,75L46.158,147.981z"/>
			</g>
			<g>
				<polygon fill="#F5C714" points="33.229,128.399 45.588,148.99 134.41,148.99 146.771,128.399 				"/>
				<path fill="#2F5190" d="M134.98,150H45.017l-13.571-22.61h117.107L134.98,150z M46.158,147.981h87.684l11.146-18.573H35.011
					L46.158,147.981z"/>
			</g>
		</g>
		<g enable-background="new    ">
			<g>
				<path d="M60.495,141.694c0.566,0.348,1.395,0.639,2.266,0.639c1.292,0,2.047-0.683,2.047-1.671c0-0.916-0.522-1.438-1.844-1.946
					c-1.598-0.568-2.585-1.396-2.585-2.777c0-1.525,1.264-2.658,3.166-2.658c1.002,0,1.728,0.23,2.163,0.479l-0.349,1.031
					c-0.319-0.174-0.973-0.464-1.858-0.464c-1.337,0-1.844,0.799-1.844,1.468c0,0.915,0.596,1.366,1.945,1.891
					c1.655,0.639,2.497,1.438,2.497,2.877c0,1.512-1.118,2.818-3.427,2.818c-0.944,0-1.976-0.275-2.497-0.625L60.495,141.694z"/>
			</g>
			<g>
				<path d="M68.583,139.95c0.028,1.729,1.134,2.441,2.41,2.441c0.914,0,1.467-0.16,1.945-0.363l0.217,0.916
					c-0.449,0.203-1.219,0.436-2.337,0.436c-2.163,0-3.455-1.424-3.455-3.546s1.248-3.793,3.296-3.793
					c2.294,0,2.903,2.021,2.903,3.313c0,0.261-0.028,0.465-0.044,0.596H68.583L68.583,139.95z M72.328,139.034
					c0.016-0.814-0.334-2.078-1.771-2.078c-1.292,0-1.858,1.191-1.96,2.078H72.328z"/>
			</g>
			<g>
				<path d="M80.169,142.972c-0.306,0.16-0.974,0.394-1.844,0.408l-0.362,0.58c0.521,0.102,1.017,0.465,1.017,1.061
					c0,0.873-0.728,1.207-1.51,1.207c-0.334,0-0.74-0.088-1.019-0.248l0.22-0.652c0.217,0.13,0.508,0.188,0.798,0.188
					c0.334,0,0.625-0.102,0.625-0.449c-0.016-0.393-0.451-0.538-1.133-0.61l0.608-1.119c-1.786-0.218-2.933-1.599-2.933-3.546
					c0-2.165,1.48-3.734,3.774-3.734c0.755,0,1.423,0.188,1.771,0.362l-0.291,0.988c-0.306-0.175-0.783-0.334-1.48-0.334
					c-1.611,0-2.481,1.19-2.481,2.659c0,1.628,1.045,2.631,2.438,2.631c0.728,0,1.221-0.189,1.568-0.35L80.169,142.972z"/>
			</g>
			<g>
				<path d="M82.261,139.95c0.027,1.729,1.133,2.441,2.41,2.441c0.915,0,1.466-0.16,1.945-0.363l0.218,0.916
					c-0.449,0.203-1.221,0.436-2.338,0.436c-2.163,0-3.455-1.424-3.455-3.546s1.248-3.793,3.296-3.793
					c2.294,0,2.903,2.021,2.903,3.313c0,0.261-0.028,0.465-0.044,0.596H82.261L82.261,139.95z M86.007,139.034
					c0.015-0.814-0.334-2.078-1.771-2.078c-1.292,0-1.857,1.191-1.96,2.078H86.007z"/>
			</g>
			<g>
				<path d="M88.824,138.104c0-0.728-0.015-1.322-0.059-1.904h1.133l0.073,1.163H90c0.349-0.669,1.161-1.322,2.323-1.322
					c0.973,0,2.482,0.581,2.482,2.994v4.199h-1.277v-4.056c0-1.134-0.422-2.078-1.627-2.078c-0.842,0-1.494,0.597-1.712,1.309
					c-0.059,0.16-0.087,0.378-0.087,0.598v4.229h-1.278L88.824,138.104L88.824,138.104z"/>
			</g>
			<g>
				<path d="M97.596,139.95c0.029,1.729,1.131,2.441,2.41,2.441c0.914,0,1.465-0.16,1.943-0.363l0.219,0.916
					c-0.449,0.203-1.221,0.436-2.338,0.436c-2.162,0-3.455-1.424-3.455-3.546s1.248-3.793,3.297-3.793
					c2.293,0,2.902,2.021,2.902,3.313c0,0.261-0.027,0.465-0.043,0.596H97.596L97.596,139.95z M101.342,139.034
					c0.014-0.814-0.334-2.078-1.771-2.078c-1.293,0-1.857,1.191-1.961,2.078H101.342z"/>
			</g>
			<g>
				<path d="M105.422,139.427h0.027c0.176-0.246,0.422-0.553,0.625-0.799l2.063-2.428h1.537l-2.713,2.893l3.092,4.143H108.5
					l-2.426-3.372l-0.654,0.728v2.646h-1.264v-10.318h1.264L105.422,139.427L105.422,139.427z"/>
			</g>
			<g>
				<path d="M113.943,141.767c0.363,0.231,1.205,0.596,2.092,0.596c1.641,0,2.148-1.047,2.135-1.831
					c-0.016-1.322-1.205-1.89-2.439-1.89h-0.711v-0.959h0.711c0.93,0,2.105-0.479,2.105-1.6c0-0.756-0.479-1.424-1.654-1.424
					c-0.756,0-1.482,0.334-1.889,0.625l-0.334-0.932c0.494-0.361,1.451-0.727,2.469-0.727c1.857,0,2.701,1.104,2.701,2.254
					c0,0.973-0.582,1.801-1.744,2.223v0.029c1.162,0.231,2.105,1.104,2.105,2.428c0,1.511-1.176,2.834-3.439,2.834
					c-1.061,0-1.99-0.334-2.455-0.641L113.943,141.767z"/>
			</g>
		</g>
	</g>
	<g>
		<g>
			<path fill="#FFFFFF" stroke="#FFFFFF" stroke-width="15" stroke-miterlimit="10" d="M125.309,72.577"/>
		</g>
		<g>
			<path fill="#FFFFFF" stroke="#FFFFFF" stroke-width="15" stroke-miterlimit="10" d="M54.692,72.577"/>
		</g>
		<g>
			<rect x="51.692" y="36.246" fill="#FFFFFF" width="6.05" height="71.673"/>
		</g>
		<g>
			<g>
				<rect x="54.692" y="34.207" fill="#FFFFFF" width="70.615" height="6.056"/>
			</g>
			<g>
				<path fill="#FFFFFF" stroke="#FFFFFF" stroke-width="15" stroke-miterlimit="10" d="M126.346,108.96"/>
			</g>
			<g>
				<path fill="#FFFFFF" stroke="#FFFFFF" stroke-width="15" stroke-miterlimit="10" d="M54.692,37.235"/>
			</g>
			<g>
				<path fill="#FFFFFF" stroke="#FFFFFF" stroke-width="15" stroke-miterlimit="10" d="M54.717,107.946"/>
			</g>
			<g>
				<path fill="#FFFFFF" stroke="#FFFFFF" stroke-width="15" stroke-miterlimit="10" d="M126.346,36.246"/>
			</g>
			<g>
				<rect x="54.717" y="104.918" fill="#FFFFFF" width="71.628" height="6.058"/>
			</g>
			<g>
				<rect x="122.332" y="37.235" fill="#FFFFFF" width="6.053" height="70.711"/>
			</g>
		</g>
		<g>
			<path fill="#FFFFFF" d="M72.346,37.235c0,9.76-7.905,17.671-17.654,17.671s-17.655-7.912-17.655-17.671
				c0-9.76,7.906-17.672,17.655-17.672S72.346,27.476,72.346,37.235z"/>
		</g>
		<g>
			<path fill="#FFFFFF" d="M142.963,37.235c0,9.76-7.904,17.671-17.654,17.671s-17.654-7.912-17.654-17.671
				c0-9.76,7.904-17.672,17.654-17.672S142.963,27.476,142.963,37.235z"/>
		</g>
		<g>
			<path fill="#FFFFFF" d="M72.346,107.92c0,9.761-7.905,17.673-17.654,17.673s-17.655-7.912-17.655-17.673
				c0-9.76,7.906-17.671,17.655-17.671S72.346,98.16,72.346,107.92z"/>
		</g>
		<g>
			<path fill="#FFFFFF" d="M142.963,107.92c0,9.761-7.904,17.673-17.654,17.673s-17.654-7.912-17.654-17.673
				c0-9.76,7.904-17.671,17.654-17.671S142.963,98.16,142.963,107.92z"/>
		</g>
	</g>
	<g>
		<g>
			<ellipse fill="none" cx="54.692" cy="37.235" rx="17.653" ry="17.672"/>
		</g>
		<g>
			<g>
				<path d="M39.555,31.671c0.796-0.135,1.915-0.236,3.49-0.236c1.593,0,2.729,0.305,3.489,0.916
					c0.729,0.576,1.221,1.526,1.221,2.646s-0.373,2.069-1.052,2.714c-0.882,0.831-2.187,1.204-3.71,1.204
					c-0.339,0-0.646-0.018-0.883-0.051v4.087h-2.559L39.555,31.671L39.555,31.671z M42.113,36.862
					c0.22,0.051,0.491,0.068,0.864,0.068c1.372,0,2.22-0.695,2.22-1.867c0-1.051-0.729-1.678-2.016-1.678
					c-0.526,0-0.883,0.049-1.067,0.102L42.113,36.862L42.113,36.862z"/>
			</g>
			<g>
				<path d="M49.397,31.671c0.83-0.135,2.066-0.236,3.438-0.236c1.693,0,2.882,0.254,3.693,0.898
					c0.677,0.543,1.052,1.34,1.052,2.393c0,1.459-1.035,2.459-2.018,2.814v0.051c0.797,0.322,1.235,1.086,1.524,2.137
					c0.354,1.289,0.713,2.783,0.934,3.223h-2.646c-0.187-0.322-0.456-1.254-0.795-2.663c-0.307-1.424-0.798-1.813-1.849-1.831
					h-0.779v4.494h-2.559L49.397,31.671L49.397,31.671z M51.956,36.591h1.017c1.289,0,2.051-0.645,2.051-1.646
					c0-1.052-0.712-1.578-1.896-1.595c-0.629,0-0.984,0.052-1.169,0.084L51.956,36.591L51.956,36.591z"/>
			</g>
			<g>
				<path d="M69.829,37.116c0,3.749-2.27,6.021-5.606,6.021c-3.39,0-5.371-2.562-5.371-5.817c0-3.427,2.187-5.987,5.558-5.987
					C67.915,31.333,69.829,33.961,69.829,37.116z M61.577,37.269c0,2.24,1.052,3.816,2.78,3.816c1.745,0,2.745-1.662,2.745-3.884
					c0-2.052-0.982-3.815-2.763-3.815C62.595,33.386,61.577,35.048,61.577,37.269z"/>
			</g>
		</g>
	</g>
	<g>
		<g>
			<ellipse fill="none" cx="54.718" cy="107.946" rx="17.653" ry="17.671"/>
		</g>
		<g>
			<g>
				<path d="M52.999,110.728l-0.813,2.935h-2.678l3.489-11.433h3.39l3.54,11.433h-2.779l-0.882-2.935H52.999z M55.894,108.794
					l-0.711-2.425c-0.203-0.679-0.407-1.526-0.577-2.206h-0.033c-0.17,0.68-0.34,1.544-0.525,2.206l-0.68,2.425H55.894z"/>
			</g>
		</g>
	</g>
	<g>
		<g>
			<ellipse fill="none" cx="125.309" cy="107.92" rx="17.652" ry="17.671"/>
		</g>
		<g>
			<g>
				<path d="M121.07,102.341c0.68-0.137,2.051-0.238,3.338-0.238c1.576,0,2.543,0.152,3.373,0.646
					c0.795,0.425,1.371,1.204,1.371,2.238c0,1.019-0.594,1.968-1.881,2.444v0.033c1.305,0.355,2.27,1.338,2.27,2.814
					c0,1.035-0.475,1.849-1.184,2.427c-0.83,0.662-2.221,1.035-4.49,1.035c-1.271,0-2.221-0.086-2.799-0.17L121.07,102.341
					L121.07,102.341z M123.631,106.716h0.848c1.355,0,2.084-0.56,2.084-1.406c0-0.865-0.66-1.322-1.83-1.322
					c-0.559,0-0.881,0.033-1.1,0.066L123.631,106.716L123.631,106.716z M123.631,111.787c0.254,0.034,0.561,0.034,1,0.034
					c1.17,0,2.203-0.441,2.203-1.646c0-1.152-1.033-1.611-2.322-1.611h-0.881V111.787L123.631,111.787z"/>
			</g>
		</g>
	</g>
	<g>
		<g>
			<ellipse fill="none" cx="125.309" cy="37.235" rx="17.654" ry="17.671"/>
		</g>
		<g>
			<g>
				<path d="M129.697,42.638c-0.477,0.237-1.543,0.492-2.934,0.492c-3.947,0-5.98-2.46-5.98-5.716c0-3.901,2.779-6.071,6.234-6.071
					c1.338,0,2.355,0.271,2.813,0.508l-0.525,2.053c-0.525-0.221-1.252-0.424-2.168-0.424c-2.051,0-3.643,1.238-3.643,3.781
					c0,2.291,1.354,3.731,3.658,3.731c0.781,0,1.645-0.169,2.152-0.373L129.697,42.638z"/>
			</g>
		</g>
	</g>
</g>
</svg>
