<?xml version="1.0"?>
<svg width="180" height="150" xmlns="http://www.w3.org/2000/svg" xmlns:svg="http://www.w3.org/2000/svg" enable-background="new 0 0 180 150" version="1.1" xml:space="preserve">
 <g class="layer">
  <title>Layer 1</title>
  <g id="svg_1">
   <g id="svg_2">
    <g id="svg_3">
     <g id="svg_4">
      <polygon fill="#1C75BC" id="svg_5" points="45.588,148.989 1.177,75 45.588,1.008 134.413,1.008 178.824,75 134.413,148.989     "/>
      <path d="m134.98,150l-89.96,0l-45.02,-75l45.02,-75l89.96,0l45.02,75l-45.02,75zm-88.82,-2.02l87.68,0l43.81,-72.98l-43.81,-72.98l-87.68,0l-43.81,72.98l43.81,72.98z" fill="#2F5190" id="svg_6"/>
     </g>
     <g id="svg_7"/>
    </g>
   </g>
   <g id="svg_27">
    <g id="svg_28">
     <rect fill="#FFFFFF" height="6.06" id="svg_29" width="70.62" x="54.69" y="69.55"/>
    </g>
    <g id="svg_30">
     <path d="m72.36,72.58c0,9.76 -7.91,17.68 -17.66,17.68s-17.65,-7.92 -17.65,-17.68c0,-9.76 7.9,-17.67 17.65,-17.67s17.66,7.91 17.66,17.67z" fill="#FFFFFF" id="svg_31"/>
    </g>
    <g id="svg_32">
     <path d="m142.96,72.58c0,9.76 -7.9,17.67 -17.65,17.67c-9.75,0 -17.65,-7.91 -17.65,-17.67c0,-9.76 7.9,-17.67 17.65,-17.67c9.75,0 17.65,7.91 17.65,17.67z" fill="#FFFFFF" id="svg_33"/>
    </g>
   </g>
   <g id="svg_34">
    <g id="svg_35">
     <ellipse cx="54.7" cy="72.58" fill="none" id="svg_36" rx="17.65" ry="17.67"/>
    </g>
    <g id="svg_37">
     <g id="svg_38">
      <path d="m39.57,67.01c0.79,-0.13 1.91,-0.23 3.49,-0.23c1.59,0 2.73,0.3 3.49,0.91c0.73,0.58 1.22,1.53 1.22,2.65c0,1.12 -0.37,2.07 -1.05,2.71c-0.88,0.83 -2.19,1.21 -3.71,1.21c-0.34,0 -0.65,-0.02 -0.88,-0.05l0,4.08l-2.56,0l0,-11.28l0,0l0,0zm2.56,5.19c0.22,0.06 0.49,0.07 0.86,0.07c1.37,0 2.22,-0.69 2.22,-1.86c0,-1.06 -0.73,-1.68 -2.02,-1.68c-0.52,0 -0.88,0.05 -1.06,0.1l0,3.37l0,0z" id="svg_39"/>
     </g>
     <g id="svg_40">
      <path d="m49.41,67.01c0.83,-0.13 2.07,-0.23 3.44,-0.23c1.69,0 2.88,0.25 3.69,0.9c0.68,0.54 1.06,1.34 1.06,2.39c0,1.46 -1.04,2.46 -2.02,2.81l0,0.05c0.8,0.33 1.24,1.09 1.52,2.14c0.36,1.29 0.72,2.78 0.94,3.22l-2.65,0c-0.18,-0.32 -0.46,-1.25 -0.79,-2.66c-0.31,-1.42 -0.8,-1.81 -1.85,-1.83l-0.78,0l0,4.49l-2.56,0l0,-11.28l0,0zm2.56,4.92l1.02,0c1.28,0 2.05,-0.64 2.05,-1.64c0,-1.06 -0.71,-1.58 -1.9,-1.6c-0.63,0 -0.98,0.05 -1.17,0.09l0,3.15l0,0z" id="svg_41"/>
     </g>
     <g id="svg_42">
      <path d="m69.84,72.46c0,3.75 -2.27,6.02 -5.61,6.02c-3.38,0 -5.37,-2.56 -5.37,-5.82c0,-3.42 2.19,-5.98 5.56,-5.98c3.51,-0.01 5.42,2.62 5.42,5.78zm-8.25,0.15c0,2.24 1.05,3.82 2.78,3.82c1.75,0 2.75,-1.67 2.75,-3.89c0,-2.05 -0.99,-3.81 -2.77,-3.81c-1.74,0 -2.76,1.66 -2.76,3.88z" id="svg_43"/>
     </g>
    </g>
   </g>
   <g id="svg_44">
    <g id="svg_45">
     <ellipse cx="125.31" cy="72.59" fill="none" id="svg_46" rx="17.65" ry="17.67"/>
    </g>
    <g id="svg_47">
     <g id="svg_48">
      <path d="m123.59,75.37l-0.81,2.94l-2.68,0l3.49,-11.44l3.39,0l3.54,11.44l-2.78,0l-0.88,-2.94l-3.27,0zm2.9,-1.93l-0.72,-2.43c-0.2,-0.68 -0.4,-1.52 -0.57,-2.2l-0.03,0c-0.18,0.68 -0.34,1.54 -0.53,2.2l-0.68,2.43l2.53,0z" id="svg_49"/>
     </g>
    </g>
   </g>
  </g>
 </g>
</svg>