<?xml version="1.0"?>
<svg width="180" height="150" xmlns="http://www.w3.org/2000/svg" xmlns:svg="http://www.w3.org/2000/svg" enable-background="new 0 0 180 150" version="1.1" xml:space="preserve">
 <g class="layer">
  <title>Layer 1</title>
  <g id="svg_1">
   <g id="svg_2">
    <g id="svg_3">
     <g id="svg_4">
      <polygon fill="#1C75BC" id="svg_5" points="45.589,148.99 1.176,75 45.589,1.009 134.412,1.009 178.824,75 134.412,148.99     "/>
      <path d="m134.98,150l-89.96,0l-45.02,-75l0.31,-0.52l44.71,-74.48l89.96,0l45.02,75l-0.31,0.52l-44.71,74.48zm-88.82,-2.02l87.68,0l43.81,-72.98l-43.81,-72.98l-87.68,0l-43.81,72.98l43.81,72.98z" fill="#2F5190" id="svg_6"/>
     </g>
    </g>
   </g>
   <g id="svg_27">
    <g id="svg_28">
     <path d="m125.31,72.58" fill="#FFFFFF" id="svg_29" stroke="#FFFFFF" stroke-miterlimit="10" stroke-width="15"/>
    </g>
    <g id="svg_30">
     <path d="m54.69,72.58" fill="#FFFFFF" id="svg_31" stroke="#FFFFFF" stroke-miterlimit="10" stroke-width="15"/>
    </g>
    <g id="svg_32">
     <path d="m54.72,107.92" fill="#FFFFFF" id="svg_33" stroke="#FFFFFF" stroke-miterlimit="10" stroke-width="15"/>
    </g>
    <g id="svg_34">
     <g id="svg_35">
      <polygon fill="#FFFFFF" id="svg_36" points="123.648,110.33 87.301,38.604 92.699,35.865 129.045,107.591     "/>
     </g>
     <g id="svg_37">
      <polygon fill="#FFFFFF" id="svg_38" points="57.426,109.3 52.012,106.593 87.293,35.882 92.707,38.589     "/>
     </g>
     <g id="svg_39">
      <rect fill="#FFFFFF" height="6.06" id="svg_40" width="71.63" x="54.72" y="104.92"/>
     </g>
     <g id="svg_41">
      <path d="m125.36,107.95" fill="#FFFFFF" id="svg_42" stroke="#FFFFFF" stroke-miterlimit="10" stroke-width="15"/>
     </g>
    </g>
    <g id="svg_43">
     <ellipse cx="90" cy="37.23" fill="#FFFFFF" id="svg_44" rx="17.65" ry="17.67"/>
    </g>
    <g id="svg_45">
     <path d="m72.35,107.92c0,9.76 -7.91,17.67 -17.66,17.67c-9.75,0 -17.65,-7.91 -17.65,-17.67c0,-9.76 7.9,-17.67 17.65,-17.67c9.75,0 17.66,7.91 17.66,17.67z" fill="#FFFFFF" id="svg_46"/>
    </g>
    <g id="svg_47">
     <path d="m142.96,107.92c0,9.76 -7.9,17.67 -17.65,17.67c-9.75,0 -17.65,-7.91 -17.65,-17.67c0,-9.76 7.9,-17.67 17.65,-17.67c9.75,0 17.65,7.91 17.65,17.67z" fill="#FFFFFF" id="svg_48"/>
    </g>
   </g>
   <g id="svg_49">
    <g id="svg_50">
     <ellipse cx="90" cy="37.23" fill="none" id="svg_51" rx="17.65" ry="17.67"/>
    </g>
    <g id="svg_52">
     <g id="svg_53">
      <path d="m74.86,31.67c0.8,-0.13 1.92,-0.24 3.49,-0.24c1.6,0 2.73,0.31 3.49,0.92c0.73,0.58 1.22,1.53 1.22,2.65s-0.37,2.07 -1.05,2.71c-0.88,0.83 -2.18,1.2 -3.71,1.2c-0.34,0 -0.64,-0.01 -0.88,-0.05l0,4.09l-2.56,0l0,-11.28l0,0zm2.56,5.19c0.22,0.05 0.49,0.07 0.87,0.07c1.37,0 2.22,-0.7 2.22,-1.87c0,-1.05 -0.73,-1.67 -2.02,-1.67c-0.53,0 -0.88,0.04 -1.07,0.1l0,3.37l0,0z" id="svg_54"/>
     </g>
     <g id="svg_55">
      <path d="m84.71,31.67c0.83,-0.13 2.06,-0.24 3.44,-0.24c1.69,0 2.88,0.26 3.69,0.9c0.68,0.55 1.05,1.34 1.05,2.4c0,1.46 -1.03,2.46 -2.02,2.81l0,0.05c0.8,0.32 1.24,1.09 1.53,2.14c0.35,1.29 0.71,2.78 0.93,3.22l-2.64,0c-0.19,-0.32 -0.46,-1.25 -0.8,-2.66c-0.31,-1.43 -0.8,-1.81 -1.85,-1.83l-0.78,0l0,4.49l-2.56,0l0.01,-11.28l0,0zm2.56,4.92l1.01,0c1.29,0 2.05,-0.64 2.05,-1.64c0,-1.06 -0.71,-1.58 -1.89,-1.6c-0.63,0 -0.99,0.05 -1.17,0.08l0,3.16l0,0z" id="svg_56"/>
     </g>
     <g id="svg_57">
      <path d="m105.14,37.12c0,3.75 -2.27,6.02 -5.61,6.02c-3.39,0 -5.37,-2.56 -5.37,-5.82c0,-3.43 2.19,-5.99 5.56,-5.99c3.5,0 5.42,2.63 5.42,5.79zm-8.25,0.15c0,2.24 1.05,3.82 2.77,3.82c1.75,0 2.75,-1.67 2.75,-3.89c0,-2.05 -0.98,-3.81 -2.76,-3.81c-1.75,0 -2.76,1.66 -2.76,3.88z" id="svg_58"/>
     </g>
    </g>
   </g>
   <g id="svg_59">
    <g id="svg_60">
     <ellipse cx="54.69" cy="107.92" fill="none" id="svg_61" rx="17.65" ry="17.67"/>
    </g>
    <g id="svg_62">
     <g id="svg_63">
      <path d="m52.97,110.7l-0.81,2.94l-2.68,0l3.49,-11.44l3.39,0l3.54,11.44l-2.78,0l-0.88,-2.94l-3.27,0zm2.9,-1.93l-0.71,-2.43c-0.21,-0.68 -0.41,-1.52 -0.58,-2.2l-0.03,0c-0.17,0.68 -0.34,1.54 -0.53,2.2l-0.68,2.43l2.53,0z" id="svg_64"/>
     </g>
    </g>
   </g>
   <g id="svg_65">
    <g id="svg_66">
     <ellipse cx="125.36" cy="107.95" fill="none" id="svg_67" rx="17.65" ry="17.67"/>
    </g>
    <g id="svg_68">
     <g id="svg_69">
      <path d="m121.12,102.37c0.68,-0.14 2.05,-0.24 3.34,-0.24c1.58,0 2.54,0.15 3.37,0.64c0.8,0.43 1.37,1.21 1.37,2.24c0,1.02 -0.59,1.97 -1.88,2.44l0,0.04c1.31,0.35 2.27,1.34 2.27,2.81c0,1.04 -0.47,1.85 -1.18,2.43c-0.83,0.66 -2.22,1.03 -4.49,1.03c-1.27,0 -2.22,-0.08 -2.8,-0.17l0,-11.22l0,0zm2.56,4.37l0.85,0c1.36,0 2.09,-0.56 2.09,-1.41c0,-0.86 -0.67,-1.32 -1.83,-1.32c-0.57,0 -0.88,0.04 -1.11,0.07l0,2.66l0,0zm0,5.07c0.26,0.04 0.56,0.04 1,0.04c1.17,0 2.21,-0.44 2.21,-1.65c0,-1.15 -1.04,-1.61 -2.33,-1.61l-0.88,0l0,3.22l0,0z" id="svg_70"/>
     </g>
    </g>
   </g>
  </g>
 </g>
</svg>