<?xml version="1.0" encoding="utf-8"?>
<!-- Generator: Adobe Illustrator 16.0.0, SVG Export Plug-In . SVG Version: 6.00 Build 0)  -->
<!DOCTYPE svg PUBLIC "-//W3C//DTD SVG 1.1//EN" "http://www.w3.org/Graphics/SVG/1.1/DTD/svg11.dtd">
<svg version="1.1" id="Layer_1" xmlns="http://www.w3.org/2000/svg" xmlns:xlink="http://www.w3.org/1999/xlink" x="0px" y="0px"
	 width="180px" height="150px" viewBox="0 0 180 150" enable-background="new 0 0 180 150" xml:space="preserve">
<g>
	<g>
		<g>
			<g>
				<polygon fill="#1C75BC" points="45.589,148.99 1.176,75 45.589,1.009 134.412,1.009 178.824,75 134.412,148.99 				"/>
				<path fill="#2F5190" d="M134.982,150H45.019L0,75l0.313-0.521L45.019,0h89.963L180,75l-0.313,0.521L134.982,150z M46.16,147.981
					h87.682L177.648,75L133.842,2.019H46.16L2.354,75L46.16,147.981z"/>
			</g>
			<g>
				<polygon fill="#F5C714" points="33.229,128.399 45.589,148.99 134.412,148.99 146.771,128.399 				"/>
				<path fill="#2F5190" d="M134.982,150H45.019l-13.572-22.61h117.108L134.982,150z M46.16,147.981h87.682l11.148-18.573H35.011
					L46.16,147.981z"/>
			</g>
		</g>
		<g enable-background="new    ">
			<g>
				<path d="M60.495,141.694c0.566,0.348,1.395,0.639,2.266,0.639c1.291,0,2.047-0.683,2.047-1.671c0-0.916-0.522-1.438-1.844-1.946
					c-1.597-0.568-2.585-1.396-2.585-2.777c0-1.525,1.265-2.658,3.165-2.658c1.002,0,1.729,0.23,2.164,0.479l-0.349,1.031
					c-0.319-0.174-0.974-0.464-1.858-0.464c-1.336,0-1.844,0.799-1.844,1.468c0,0.915,0.596,1.366,1.945,1.891
					c1.654,0.639,2.497,1.438,2.497,2.877c0,1.512-1.117,2.818-3.428,2.818c-0.942,0-1.975-0.275-2.495-0.625L60.495,141.694z"/>
			</g>
			<g>
				<path d="M68.583,139.95c0.029,1.729,1.133,2.441,2.41,2.441c0.916,0,1.467-0.16,1.945-0.363l0.219,0.916
					c-0.45,0.203-1.22,0.436-2.338,0.436c-2.163,0-3.456-1.424-3.456-3.546s1.249-3.793,3.296-3.793
					c2.295,0,2.904,2.021,2.904,3.313c0,0.261-0.029,0.465-0.043,0.596H68.583L68.583,139.95z M72.329,139.034
					c0.016-0.814-0.334-2.078-1.771-2.078c-1.292,0-1.858,1.191-1.96,2.078H72.329z"/>
			</g>
			<g>
				<path d="M80.169,142.972c-0.305,0.16-0.972,0.394-1.843,0.408l-0.363,0.58c0.522,0.102,1.018,0.465,1.018,1.061
					c0,0.873-0.728,1.207-1.511,1.207c-0.333,0-0.739-0.088-1.018-0.248l0.219-0.652c0.219,0.13,0.509,0.188,0.799,0.188
					c0.334,0,0.625-0.102,0.625-0.449c-0.016-0.393-0.45-0.538-1.134-0.61l0.61-1.119c-1.786-0.218-2.933-1.599-2.933-3.546
					c0-2.165,1.479-3.734,3.773-3.734c0.756,0,1.423,0.188,1.771,0.362l-0.29,0.988c-0.307-0.175-0.784-0.334-1.481-0.334
					c-1.611,0-2.481,1.19-2.481,2.659c0,1.628,1.046,2.631,2.438,2.631c0.727,0,1.219-0.189,1.568-0.35L80.169,142.972z"/>
			</g>
			<g>
				<path d="M82.261,139.95c0.028,1.729,1.132,2.441,2.409,2.441c0.915,0,1.467-0.16,1.945-0.363l0.218,0.916
					c-0.45,0.203-1.22,0.436-2.338,0.436c-2.163,0-3.455-1.424-3.455-3.546s1.249-3.793,3.296-3.793
					c2.294,0,2.903,2.021,2.903,3.313c0,0.261-0.028,0.465-0.043,0.596H82.261L82.261,139.95z M86.007,139.034
					c0.015-0.814-0.334-2.078-1.771-2.078c-1.292,0-1.857,1.191-1.96,2.078H86.007z"/>
			</g>
			<g>
				<path d="M88.825,138.104c0-0.728-0.015-1.322-0.059-1.904h1.133l0.073,1.163H90c0.35-0.669,1.163-1.322,2.323-1.322
					c0.973,0,2.482,0.581,2.482,2.994v4.199h-1.277v-4.056c0-1.134-0.42-2.078-1.625-2.078c-0.844,0-1.497,0.597-1.713,1.309
					c-0.06,0.16-0.088,0.378-0.088,0.598v4.229h-1.277L88.825,138.104L88.825,138.104z"/>
			</g>
			<g>
				<path d="M97.596,139.95c0.027,1.729,1.133,2.441,2.408,2.441c0.916,0,1.467-0.16,1.945-0.363l0.219,0.916
					c-0.451,0.203-1.221,0.436-2.338,0.436c-2.164,0-3.455-1.424-3.455-3.546s1.248-3.793,3.295-3.793
					c2.295,0,2.904,2.021,2.904,3.313c0,0.261-0.029,0.465-0.043,0.596H97.596L97.596,139.95z M101.342,139.034
					c0.014-0.814-0.336-2.078-1.771-2.078c-1.293,0-1.857,1.191-1.959,2.078H101.342z"/>
			</g>
			<g>
				<path d="M105.422,139.427h0.029c0.174-0.246,0.42-0.553,0.623-0.799l2.063-2.428h1.539l-2.715,2.893l3.094,4.143H108.5
					l-2.426-3.372l-0.654,0.728v2.646h-1.262v-10.318h1.262L105.422,139.427L105.422,139.427z"/>
			</g>
			<g>
				<path d="M113.641,143.234v-0.784l1-0.975c2.41-2.297,3.5-3.518,3.514-4.94c0-0.96-0.463-1.847-1.873-1.847
					c-0.855,0-1.568,0.437-2.004,0.8l-0.406-0.901c0.654-0.552,1.584-0.959,2.672-0.959c2.033,0,2.891,1.396,2.891,2.747
					c0,1.744-1.264,3.154-3.252,5.072l-0.756,0.698v0.027h4.238v1.063L113.641,143.234L113.641,143.234z"/>
			</g>
		</g>
	</g>
	<g>
		<g>
			<path fill="#FFFFFF" stroke="#FFFFFF" stroke-width="15" stroke-miterlimit="10" d="M125.309,72.577"/>
		</g>
		<g>
			<path fill="#FFFFFF" stroke="#FFFFFF" stroke-width="15" stroke-miterlimit="10" d="M54.692,72.577"/>
		</g>
		<g>
			<path fill="#FFFFFF" stroke="#FFFFFF" stroke-width="15" stroke-miterlimit="10" d="M54.717,107.92"/>
		</g>
		<g>
			<g>
				<polygon fill="#FFFFFF" points="123.648,110.33 87.301,38.604 92.699,35.865 129.045,107.591 				"/>
			</g>
			<g>
				<polygon fill="#FFFFFF" points="57.426,109.3 52.012,106.593 87.293,35.882 92.707,38.589 				"/>
			</g>
			<g>
				<rect x="54.717" y="104.918" fill="#FFFFFF" width="71.63" height="6.058"/>
			</g>
			<g>
				<path fill="#FFFFFF" stroke="#FFFFFF" stroke-width="15" stroke-miterlimit="10" d="M125.359,107.946"/>
			</g>
		</g>
		<g>
			<ellipse fill="#FFFFFF" cx="90" cy="37.235" rx="17.654" ry="17.671"/>
		</g>
		<g>
			<path fill="#FFFFFF" d="M72.347,107.92c0,9.761-7.905,17.673-17.655,17.673c-9.749,0-17.654-7.912-17.654-17.673
				c0-9.76,7.905-17.671,17.654-17.671C64.442,90.249,72.347,98.16,72.347,107.92z"/>
		</g>
		<g>
			<path fill="#FFFFFF" d="M142.963,107.92c0,9.761-7.904,17.673-17.654,17.673c-9.748,0-17.654-7.912-17.654-17.673
				c0-9.76,7.906-17.671,17.654-17.671C135.059,90.249,142.963,98.16,142.963,107.92z"/>
		</g>
	</g>
	<g>
		<g>
			<ellipse fill="none" cx="90" cy="37.235" rx="17.654" ry="17.672"/>
		</g>
		<g>
			<g>
				<path d="M74.864,31.671c0.797-0.135,1.915-0.236,3.489-0.236c1.593,0,2.729,0.305,3.489,0.916
					c0.729,0.576,1.221,1.526,1.221,2.646s-0.373,2.069-1.05,2.714c-0.883,0.831-2.187,1.204-3.712,1.204
					c-0.339,0-0.644-0.018-0.881-0.051v4.087h-2.56L74.864,31.671L74.864,31.671z M77.422,36.862
					c0.222,0.051,0.492,0.068,0.864,0.068c1.372,0,2.22-0.695,2.22-1.867c0-1.051-0.729-1.678-2.017-1.678
					c-0.525,0-0.881,0.049-1.067,0.102V36.862L77.422,36.862z"/>
			</g>
			<g>
				<path d="M84.706,31.671c0.832-0.135,2.067-0.236,3.44-0.236c1.693,0,2.879,0.254,3.692,0.898c0.68,0.543,1.053,1.34,1.053,2.393
					c0,1.459-1.035,2.459-2.018,2.814v0.051c0.797,0.322,1.236,1.086,1.525,2.137c0.354,1.289,0.711,2.783,0.932,3.223h-2.645
					c-0.186-0.322-0.457-1.254-0.795-2.663c-0.307-1.424-0.798-1.813-1.849-1.831h-0.778v4.494h-2.561L84.706,31.671L84.706,31.671z
					 M87.265,36.591h1.017c1.288,0,2.05-0.645,2.05-1.646c0-1.052-0.712-1.578-1.896-1.595c-0.627,0-0.982,0.052-1.168,0.084
					L87.265,36.591L87.265,36.591z"/>
			</g>
			<g>
				<path d="M105.139,37.116c0,3.749-2.271,6.021-5.609,6.021c-3.387,0-5.369-2.562-5.369-5.817c0-3.427,2.186-5.987,5.557-5.987
					C103.225,31.333,105.139,33.961,105.139,37.116z M96.887,37.269c0,2.24,1.051,3.816,2.777,3.816
					c1.746,0,2.746-1.662,2.746-3.884c0-2.052-0.982-3.815-2.764-3.815C97.904,33.386,96.887,35.048,96.887,37.269z"/>
			</g>
		</g>
	</g>
	<g>
		<g>
			<ellipse fill="none" cx="54.692" cy="107.92" rx="17.654" ry="17.671"/>
		</g>
		<g>
			<g>
				<path d="M52.972,110.701l-0.813,2.937h-2.678l3.49-11.433h3.389l3.54,11.433h-2.778l-0.882-2.937H52.972z M55.87,108.767
					l-0.712-2.424c-0.203-0.68-0.406-1.526-0.576-2.205h-0.034c-0.169,0.679-0.338,1.543-0.523,2.205l-0.68,2.424H55.87z"/>
			</g>
		</g>
	</g>
	<g>
		<g>
			<ellipse fill="none" cx="125.359" cy="107.946" rx="17.654" ry="17.671"/>
		</g>
		<g>
			<g>
				<path d="M121.123,102.366c0.678-0.137,2.051-0.238,3.338-0.238c1.576,0,2.543,0.153,3.371,0.646
					c0.797,0.424,1.373,1.203,1.373,2.238c0,1.018-0.594,1.967-1.881,2.441v0.034c1.305,0.356,2.271,1.34,2.271,2.813
					c0,1.035-0.477,1.851-1.186,2.428c-0.832,0.662-2.221,1.035-4.492,1.035c-1.27,0-2.221-0.086-2.797-0.17L121.123,102.366
					L121.123,102.366z M123.682,106.741h0.848c1.355,0,2.086-0.561,2.086-1.407c0-0.864-0.662-1.323-1.83-1.323
					c-0.561,0-0.881,0.034-1.102,0.068L123.682,106.741L123.682,106.741z M123.682,111.813c0.256,0.033,0.561,0.033,1,0.033
					c1.168,0,2.203-0.441,2.203-1.646c0-1.151-1.033-1.608-2.322-1.608h-0.881V111.813L123.682,111.813z"/>
			</g>
		</g>
	</g>
</g>
</svg>
